<?xml version="1.0" encoding="UTF-8"?>
<svg version="1.1" xmlns="http://www.w3.org/2000/svg" width="1280" height="288">
<path d="M0 0 C422.4 0 844.8 0 1280 0 C1280 95.04 1280 190.08 1280 288 C857.6 288 435.2 288 0 288 C0 192.96 0 97.92 0 0 Z " fill="#FEFEFE" transform="translate(0,0)"/>
<path d="M0 0 C25.21865038 19.49315626 42.91895133 47.13775979 47.25 79.0625 C47.3120775 80.68644748 47.33712041 82.31255297 47.3125 83.9375 C47.30347656 84.71867187 47.29445313 85.49984375 47.28515625 86.3046875 C47.26775391 87.17480469 47.26775391 87.17480469 47.25 88.0625 C47.91 88.0625 48.57 88.0625 49.25 88.0625 C49.25 141.5225 49.25 194.9825 49.25 250.0625 C36.63965965 250.0625 28.20652558 247.66928555 18.25 240.0625 C16.703125 238.9178125 16.703125 238.9178125 15.125 237.75 C10.98353239 233.8786281 6.66828273 229.323033 4.38101578 224.06476593 C2.38218324 220.52618196 -1.03168441 219.37422344 -4.75 218.0625 C-7.50805946 217.5687093 -10.16332564 217.53588004 -12.95996094 217.58007812 C-13.73854965 217.57616562 -14.51713837 217.57225311 -15.31932068 217.56822205 C-16.99813789 217.5622796 -18.67700703 217.56535786 -20.35579681 217.5766449 C-23.03387508 217.59407211 -25.71088883 217.58630568 -28.38897705 217.5723877 C-35.0485005 217.54289198 -41.70781563 217.55580017 -48.36737061 217.56756592 C-53.98937677 217.57586808 -59.61091559 217.56741235 -65.23285675 217.53843689 C-67.83376047 217.5314855 -70.43377367 217.54784528 -73.03460693 217.56555176 C-85.86842134 217.56252925 -100.09701639 216.8889918 -111.75 211.0625 C-111.75 198.5225 -111.75 185.9825 -111.75 173.0625 C-102.75 176.0625 -102.75 176.0625 -98.77734375 177.44921875 C-76.94773841 184.6243945 -54.93363741 182.27519735 -34.4375 172.375 C-22.28405581 166.10933718 -12.91404063 158.10290094 -4.75 147.0625 C-4.28335938 146.49402344 -3.81671875 145.92554688 -3.3359375 145.33984375 C11.0805287 127.15649444 12.96636862 103.33999985 10.8828125 81.15234375 C7.38161439 60.64875206 -5.784782 40.73291768 -22.375 28.5 C-32.42326271 21.76012394 -43.08040714 17.15444341 -54.75 14.0625 C-55.3589209 13.885979 -55.9678418 13.70945801 -56.59521484 13.52758789 C-77.09479121 9.10296825 -100.35520787 14.59203851 -118.12890625 25.05078125 C-120.79463036 26.94295242 -123.27868887 28.9239434 -125.75 31.0625 C-127.03583984 32.12791016 -127.03583984 32.12791016 -128.34765625 33.21484375 C-140.98838644 44.06337388 -149.66556323 57.2179761 -154.75 73.0625 C-154.99851715 73.78452606 -155.2470343 74.50655212 -155.50308228 75.25045776 C-158.68692607 85.86281855 -158.22963678 96.70106057 -158.26171875 107.671875 C-158.27858842 109.8519185 -158.2967417 112.03195242 -158.31611633 114.2119751 C-158.36337389 119.91313682 -158.39333961 125.61425964 -158.41955566 131.31555176 C-158.44948417 137.14794595 -158.49597196 142.98020642 -158.54101562 148.8125 C-158.62677259 160.22909636 -158.69423998 171.64572045 -158.75 183.0625 C-159.87328336 182.11247874 -160.99476213 181.1603235 -162.11547852 180.20727539 C-163.05255394 179.41227379 -163.05255394 179.41227379 -164.00856018 178.60121155 C-182.04782512 162.66197266 -193.00047046 133.6457263 -194.66015625 109.96484375 C-195.47406874 83.67193151 -191.87312453 60.1829395 -178.75 37.0625 C-178.19570312 36.08023438 -177.64140625 35.09796875 -177.0703125 34.0859375 C-162.40029137 9.72949093 -136.57424267 -11.96331051 -108.75 -19.0625 C-107.41692189 -19.35533097 -106.08355602 -19.64685318 -104.75 -19.9375 C-102.70746227 -20.45490677 -100.66585535 -20.9759966 -98.625 -21.5 C-64.7949018 -30.15942832 -27.92478726 -19.75350723 0 0 Z " fill="#AC2CED" transform="translate(220.75,28.9375)"/>
<path d="M0 0 C7.13930547 6.18290795 11.54519083 13.46172083 12.33258057 22.95506287 C12.41612301 26.64553225 12.40766007 30.32447647 12.36328125 34.015625 C12.3576741 35.37039211 12.3534093 36.72516538 12.35041809 38.0799408 C12.33905716 41.61621401 12.30966771 45.15210748 12.27630615 48.68823242 C12.24541441 52.30837782 12.23170695 55.92858744 12.21679688 59.54882812 C12.18638585 66.63054182 12.12764602 73.71121779 12.0703125 80.79296875 C2.8303125 80.79296875 -6.4096875 80.79296875 -15.9296875 80.79296875 C-15.95546875 76.97605469 -15.98125 73.15914063 -16.0078125 69.2265625 C-16.04625213 65.51970116 -16.09140646 61.81297801 -16.13720703 58.10620117 C-16.16538924 55.5349795 -16.18661737 52.96367163 -16.20068359 50.39233398 C-16.22215008 46.69079549 -16.26882315 42.99029035 -16.3203125 39.2890625 C-16.32154114 38.14400742 -16.32276978 36.99895233 -16.32403564 35.81919861 C-16.44358054 29.26807097 -17.02262105 25.12313887 -20.9296875 19.79296875 C-24.15184688 16.73191734 -27.44360373 15.85568924 -31.8046875 15.29296875 C-36.55769499 15.58830125 -41.1266722 16.8980343 -44.9296875 19.79296875 C-50.44989231 26.12145734 -50.66471947 32.27059765 -50.63671875 40.38671875 C-50.65940071 42.16761902 -50.65940071 42.16761902 -50.68254089 43.98449707 C-50.7253218 47.7541823 -50.73424732 51.52306523 -50.7421875 55.29296875 C-50.76533904 57.8580941 -50.79070572 60.42320048 -50.81835938 62.98828125 C-50.88526296 69.25694419 -50.90632525 75.5233895 -50.9296875 81.79296875 C-59.1796875 81.79296875 -67.4296875 81.79296875 -75.9296875 81.79296875 C-75.95546875 77.98765625 -75.98125 74.18234375 -76.0078125 70.26171875 C-76.04626473 66.56144935 -76.091415 62.8613178 -76.13720703 59.16113281 C-76.16536931 56.59674704 -76.18660731 54.03227522 -76.20068359 51.46777344 C-76.22217776 47.77364198 -76.26886495 44.08053988 -76.3203125 40.38671875 C-76.32154114 39.24682495 -76.32276978 38.10693115 -76.32403564 36.93249512 C-76.44852436 30.11092058 -77.2674702 25.59813547 -80.9296875 19.79296875 C-84.82328179 16.43274354 -88.38781482 16.33330373 -93.4296875 16.29296875 C-94.71875 16.26203125 -96.0078125 16.23109375 -97.3359375 16.19921875 C-102.98815045 17.13306263 -104.80944724 20.24165692 -108.03417969 24.70727539 C-110.9082002 29.85286976 -110.53276866 35.31668749 -110.5390625 41.0703125 C-110.55559875 42.23679825 -110.57213501 43.403284 -110.58917236 44.6051178 C-110.63757462 48.31362211 -110.65900717 52.02171652 -110.6796875 55.73046875 C-110.7078535 58.25197366 -110.73778181 60.77345954 -110.76953125 63.29492188 C-110.84663415 69.46112468 -110.88723017 75.62604159 -110.9296875 81.79296875 C-119.1796875 81.79296875 -127.4296875 81.79296875 -135.9296875 81.79296875 C-135.9296875 53.08296875 -135.9296875 24.37296875 -135.9296875 -5.20703125 C-127.6796875 -5.20703125 -119.4296875 -5.20703125 -110.9296875 -5.20703125 C-110.9296875 -2.56703125 -110.9296875 0.07296875 -110.9296875 2.79296875 C-110.0221875 2.05046875 -109.1146875 1.30796875 -108.1796875 0.54296875 C-97.76646762 -6.78176106 -85.46445142 -7.66199128 -73.1796875 -5.58203125 C-66.9013923 -3.94779336 -60.14868883 -0.20178444 -55.9296875 4.79296875 C-55.9296875 5.45296875 -55.9296875 6.11296875 -55.9296875 6.79296875 C-55.2696875 6.79296875 -54.6096875 6.79296875 -53.9296875 6.79296875 C-53.65125 5.95765625 -53.65125 5.95765625 -53.3671875 5.10546875 C-49.26944225 -1.48655621 -40.36464061 -5.02437709 -33.1171875 -6.95703125 C-21.03437511 -7.90470281 -10.11221788 -7.33951297 0 0 Z " fill="#040404" transform="translate(613.9296875,108.20703125)"/>
<path d="M0 0 C8.58 0 17.16 0 26 0 C32.3407178 13.20116656 38.34978214 26.50752551 44.21386719 39.92578125 C47.53637898 47.51440388 50.89498942 55.08718708 54.24575806 62.6633606 C55.49357279 65.48546399 56.74048509 68.30796423 57.98706055 71.13061523 C62.89477661 82.24473075 62.89477661 82.24473075 67.82162476 93.35037231 C68.63091875 95.17057614 69.43854636 96.9915206 70.24609375 98.8125 C71.17932005 100.91668504 72.11533813 103.01963503 73.0546875 105.12109375 C73.45300781 106.02085937 73.85132813 106.920625 74.26171875 107.84765625 C74.60162842 108.61086182 74.94153809 109.37406738 75.29174805 110.16040039 C76 112 76 112 76 114 C67.09 114 58.18 114 49 114 C45.6046997 106.36057432 42.29314858 98.68401336 39 91 C21.51 91 4.02 91 -14 91 C-16.97 98.59 -19.94 106.18 -23 114 C-31.91 114 -40.82 114 -50 114 C-47.94428953 107.83286859 -45.82293097 102.08911968 -43.11328125 96.234375 C-42.73900497 95.41481827 -42.3647287 94.59526154 -41.97911072 93.75086975 C-41.17677797 91.99412004 -40.37261662 90.2382045 -39.56677246 88.48306274 C-31.93922045 71.86260836 -24.52413508 55.16182832 -17.34106445 38.34472656 C-13.94951287 30.41723931 -10.4509177 22.55963353 -6.76464844 14.7644043 C-4.46691105 9.86279766 -2.24009787 4.92821532 0 0 Z " fill="#050505" transform="translate(389,76)"/>
<path d="M0 0 C65.89473684 0 65.89473684 0 80.875 12.375 C89.73571585 23.32059017 91.96893274 33.17194556 91 47 C89.74320543 56.05631383 84.75500188 64.34459231 77.5 69.921875 C75.04853169 71.43162073 72.59675924 72.75899558 70 74 C69.34644531 74.31453125 68.69289063 74.6290625 68.01953125 74.953125 C66.37194517 75.69508429 64.68650243 76.35134522 63 77 C62.1445459 77.35175293 61.2890918 77.70350586 60.40771484 78.06591797 C55.94473226 79.28925737 51.83064204 79.24884892 47.2265625 79.1953125 C46.3028183 79.1924826 45.3790741 79.18965271 44.42733765 79.18673706 C41.49309024 79.17559179 38.5591543 79.15049765 35.625 79.125 C33.62891068 79.11496289 31.63281654 79.10583832 29.63671875 79.09765625 C24.75759757 79.07737728 19.87914517 79.03821785 15 79 C15 90.22 15 101.44 15 113 C10.05 113 5.1 113 0 113 C0 75.71 0 38.42 0 0 Z " fill="#030303" transform="translate(969,79)"/>
<path d="M0 0 C7.92 0 15.84 0 24 0 C27.68469101 10.56741573 27.68469101 10.56741573 29.48828125 15.765625 C30.80893389 19.57192885 32.13120014 23.37764903 33.45849609 27.18164062 C34.72643923 30.81602778 35.98953958 34.4520698 37.24984741 38.08911133 C37.74969485 39.52897128 38.25117903 40.96826409 38.75430298 42.40698242 C39.46552869 44.44172404 40.17090475 46.47840689 40.875 48.515625 C41.28492188 49.69415039 41.69484375 50.87267578 42.1171875 52.08691406 C43 55 43 55 43 58 C43.66 58 44.32 58 45 58 C45.10054687 57.19949219 45.20109375 56.39898437 45.3046875 55.57421875 C46.1671493 51.14077749 47.59982798 47.05586566 49.125 42.8125 C49.4341333 41.93972412 49.7432666 41.06694824 50.06176758 40.16772461 C52.49769157 33.31942148 55.03053063 26.50800521 57.5690918 19.69726562 C59.97224574 13.19712292 62.04381832 6.6510177 64 0 C71.26 0 78.52 0 86 0 C90.67324098 11.63338711 94.8678169 23.32173985 98.71459961 35.25512695 C101.12878299 42.66882574 103.89322402 49.84876656 107 57 C107.27803467 56.31929443 107.55606934 55.63858887 107.8425293 54.93725586 C108.50569661 53.31363932 109.16886393 51.69002279 109.83203125 50.06640625 C111.04970542 46.86950249 112.13294198 43.64663072 113.20336914 40.39819336 C114.52623988 36.415797 115.92141152 32.45897963 117.3125 28.5 C117.6130127 27.6443042 117.91352539 26.7886084 118.22314453 25.90698242 C118.84238166 24.14412527 119.46184765 22.38134849 120.08154297 20.61865234 C120.97674787 18.06629514 121.86608558 15.51196509 122.75390625 12.95703125 C123.29421535 11.4088348 123.83457736 9.86065682 124.375 8.3125 C124.62548096 7.58804688 124.87596191 6.86359375 125.1340332 6.1171875 C126.88675391 1.11324609 126.88675391 1.11324609 128 0 C129.63472882 -0.08700342 131.27314055 -0.10701063 132.91015625 -0.09765625 C133.89951172 -0.09443359 134.88886719 -0.09121094 135.90820312 -0.08789062 C136.94912109 -0.07951172 137.99003906 -0.07113281 139.0625 -0.0625 C140.62967773 -0.05573242 140.62967773 -0.05573242 142.22851562 -0.04882812 C144.81906936 -0.03699911 147.40949746 -0.01967834 150 0 C148.06292948 7.57114635 145.71542807 14.8773355 142.98046875 22.1953125 C142.59941483 23.22703583 142.2183609 24.25875916 141.82575989 25.32174683 C140.61738667 28.59113945 139.40275825 31.85816112 138.1875 35.125 C136.59573329 39.4185601 135.00660877 43.71309468 133.41796875 48.0078125 C133.03357635 49.04520569 132.64918396 50.08259888 132.25314331 51.15142822 C129.54824468 58.46698754 126.92747662 65.80738913 124.38012695 73.17919922 C122.70060786 77.82884963 120.83603897 82.40990259 119 87 C111.08 87 103.16 87 95 87 C94.48824219 85.43636719 93.97648438 83.87273437 93.44921875 82.26171875 C90.68097994 73.95944238 87.7282592 65.72381661 84.77172852 57.48706055 C83.80115404 54.78086473 82.8350977 52.07308127 81.86914062 49.36523438 C81.25287747 47.64573536 80.63635099 45.92633069 80.01953125 44.20703125 C79.73100784 43.3967598 79.44248444 42.58648834 79.1452179 41.75166321 C78.05454237 38.09800746 78.05454237 38.09800746 76 35 C70.02848375 49.73821031 64.4201662 64.56674033 59.27172852 79.61401367 C58.84911743 80.83954956 58.84911743 80.83954956 58.41796875 82.08984375 C58.16813232 82.82066162 57.9182959 83.55147949 57.66088867 84.30444336 C57 86 57 86 56 87 C54.21928754 87.08726223 52.4351686 87.10699041 50.65234375 87.09765625 C49.57275391 87.09443359 48.49316406 87.09121094 47.38085938 87.08789062 C46.24455078 87.07951172 45.10824219 87.07113281 43.9375 87.0625 C42.79732422 87.05798828 41.65714844 87.05347656 40.48242188 87.04882812 C37.65489649 87.03699747 34.8274736 87.0205141 32 87 C29.14140033 81.55329181 26.91597694 76.232064 25.0625 70.375 C24.5480763 68.79127596 24.03243618 67.20794655 23.515625 65.625 C23.26232422 64.84640625 23.00902344 64.0678125 22.74804688 63.265625 C20.30735033 55.87343702 17.59903615 48.57071474 14.85913086 41.28515625 C13.87458958 38.66642752 12.89426766 36.04613604 11.9140625 33.42578125 C11.15109501 31.38800086 10.38807241 29.3502411 9.625 27.3125 C9.22869385 26.25337402 8.8323877 25.19424805 8.42407227 24.10302734 C5.92901663 17.4451227 3.39518595 10.80602514 0.77734375 4.1953125 C0 2 0 2 0 0 Z " fill="#050505" transform="translate(634,103)"/>
<path d="M0 0 C13.29828002 -0.76818923 25.49749459 1.37712029 35.99023438 10.12841797 C42.58567881 16.57396594 46.21764001 24.75394641 46.55786133 33.97680664 C46.5570805 36.50013849 46.52947731 39.02356941 46.47851562 41.54638672 C46.46916434 42.89828672 46.46205921 44.25020392 46.45707703 45.60212708 C46.43818816 49.12224963 46.38925187 52.64130389 46.33355713 56.16101074 C46.28196681 59.7678381 46.25947911 63.37484187 46.234375 66.98193359 C46.18110874 74.0312349 46.09332837 81.07964328 45.99023438 88.12841797 C38.40023437 88.12841797 30.81023437 88.12841797 22.99023438 88.12841797 C22.99023438 85.15841797 22.99023438 82.18841797 22.99023438 79.12841797 C22.33023438 79.12841797 21.67023437 79.12841797 20.99023438 79.12841797 C20.71179688 79.99466797 20.71179688 79.99466797 20.42773438 80.87841797 C18.32686672 84.16673256 15.4218175 85.51550752 11.99023438 87.12841797 C11.06791016 87.5828125 11.06791016 87.5828125 10.12695312 88.04638672 C1.28712222 91.70247212 -10.75843806 91.77266279 -19.69726562 88.44091797 C-26.57721169 85.10023108 -30.63986797 80.99302431 -34.00976562 74.12841797 C-36.15092947 67.58918785 -36.42144173 58.75340054 -33.91601562 52.31982422 C-29.31042981 45.05622745 -23.00216716 41.0347458 -15.00976562 38.12841797 C-10.57900787 37.21280098 -6.38023652 37.01145014 -1.86132812 37.03076172 C-0.87524063 37.03288414 -0.87524063 37.03288414 0.13076782 37.03504944 C2.20897169 37.04060035 4.28706365 37.05314332 6.36523438 37.06591797 C7.78320156 37.07093933 9.20117045 37.07550112 10.61914062 37.07958984 C14.07620759 37.0905536 17.53321004 37.10778376 20.99023438 37.12841797 C20.56556941 35.35446289 20.12499348 33.58431166 19.67773438 31.81591797 C19.43410156 30.82978516 19.19046875 29.84365234 18.93945312 28.82763672 C17.97346571 26.08073424 17.25939913 24.89175176 14.99023438 23.12841797 C5.95947486 19.31314688 -4.13209761 20.03139925 -13.13476562 23.50341797 C-15.10157146 24.35920371 -17.06083515 25.23266998 -19.00976562 26.12841797 C-20.67297214 26.80367075 -22.33849522 27.47337792 -24.00976562 28.12841797 C-25.37622263 25.53005661 -26.72807232 22.92576241 -28.07226562 20.31591797 C-28.65717773 19.20893555 -28.65717773 19.20893555 -29.25390625 18.07958984 C-29.80014648 17.0112793 -29.80014648 17.0112793 -30.35742188 15.92138672 C-30.69781494 15.26678467 -31.03820801 14.61218262 -31.38891602 13.93774414 C-32.00976562 12.12841797 -32.00976562 12.12841797 -31.00976562 9.12841797 C-21.18969612 2.58656158 -11.66085665 0.74509361 0 0 Z " fill="#040404" transform="translate(825.009765625,99.87158203125)"/>
<path d="M0 0 C8.63628213 6.56450556 14.88504731 15.21750713 16.9609375 26.015625 C18.07231433 39.33450607 14.84742821 50.53973127 6.1484375 60.828125 C-1.64207314 69.08461011 -10.49573209 72.91221152 -21.83984375 73.47094727 C-33.40392946 73.72003245 -43.59870094 70.05493266 -52.0390625 62.015625 C-54.65343491 59.1757831 -56.90253998 56.22852216 -59.0390625 53.015625 C-59.69455078 52.05269531 -59.69455078 52.05269531 -60.36328125 51.0703125 C-65.12269016 42.5534755 -64.34164559 29.80194904 -61.9765625 20.578125 C-57.4333197 8.32193511 -49.48785893 0.34732978 -37.86328125 -5.2578125 C-25.38001475 -10.22973449 -10.86806577 -7.09637199 0 0 Z " fill="#B42EEA" transform="translate(170.0390625,91.984375)"/>
<path d="M0 0 C0.73863281 0.38800781 1.47726562 0.77601562 2.23828125 1.17578125 C8.9779668 5.27543932 12.52152154 12.72582426 15 20 C15.83861982 24.9461446 15.8268792 29.70575208 15.68359375 34.7109375 C15.67048922 36.05853665 15.66054811 37.40616984 15.65357971 38.7538147 C15.62723236 42.24972551 15.55882118 45.74350192 15.48065186 49.23858643 C15.40820381 52.82543073 15.37689703 56.41263027 15.34179688 60 C15.26739839 67.00094158 15.14459968 74.00010417 15 81 C10.05 81 5.1 81 0 81 C-0.495 76.545 -0.495 76.545 -1 72 C-1.556875 72.598125 -2.11375 73.19625 -2.6875 73.8125 C-10.97788444 81.65475555 -22.00712007 82.40108565 -32.91015625 82.27734375 C-41.14793219 81.53792265 -49.25340411 78.0196242 -55 72 C-60.26700687 64.92165662 -61.15929693 57.62296096 -60 49 C-58.47570039 43.19630023 -55.21030697 39.85309878 -50.48828125 36.32421875 C-43.83597859 32.78398233 -37.50007034 31.5553601 -30.02734375 31.70703125 C-29.21882462 31.71127609 -28.41030548 31.71552094 -27.57728577 31.71989441 C-25.03033127 31.73649965 -22.4842096 31.77411467 -19.9375 31.8125 C-18.19597508 31.82757042 -16.45443759 31.84125466 -14.71289062 31.85351562 C-10.47494639 31.88634316 -6.23761368 31.93799545 -2 32 C-2.29143723 30.07188587 -2.59121931 28.14503181 -2.89453125 26.21875 C-3.06057861 25.14560547 -3.22662598 24.07246094 -3.39770508 22.96679688 C-4.31129276 18.46662763 -5.92387098 15.46466636 -9.7109375 12.79296875 C-18.03230151 7.82472821 -28.81886838 7.46043331 -38.16796875 9.7890625 C-41.6663456 11.17571112 -44.73629667 12.83728943 -47.9375 14.8125 C-48.618125 15.204375 -49.29875 15.59625 -50 16 C-53 15 -53 15 -54.38671875 12.71484375 C-54.81597656 11.79832031 -55.24523438 10.88179687 -55.6875 9.9375 C-56.12449219 9.01839844 -56.56148437 8.09929687 -57.01171875 7.15234375 C-57.33785156 6.44207031 -57.66398437 5.73179688 -58 5 C-42.62337524 -6.91986415 -17.08064305 -10.67182556 0 0 Z " fill="#060606" transform="translate(1136,111)"/>
<path d="M0 0 C5.28 0 10.56 0 16 0 C19.53847943 6.81677655 22.59795977 13.82258675 25.63623047 20.87158203 C26.4956086 22.86481462 27.35885162 24.85633858 28.22265625 26.84765625 C30.95414869 33.15890659 33.61704369 39.48825293 36.14160156 45.88574219 C37.35536022 48.87526152 38.73074744 51.77854898 40.125 54.6875 C42.18803425 59.09489135 43.89860864 63.26401716 45 68 C45.66 68 46.32 68 47 68 C47.10795898 67.31317139 47.21591797 66.62634277 47.32714844 65.91870117 C48.11565279 62.49832035 49.36534491 59.52031412 50.765625 56.30078125 C51.04090027 55.66569138 51.31617554 55.0306015 51.59979248 54.37626648 C52.18251455 53.03473731 52.76762683 51.69424415 53.35498047 50.35473633 C54.23857043 48.33857975 55.11404282 46.31905443 55.98828125 44.29882812 C58.8109656 37.80551271 61.74736748 31.4025278 64.96777344 25.09448242 C66.34647046 22.29697964 67.44203826 19.43206538 68.5 16.5 C70.64085252 10.77067087 73.16896108 5.41941736 76 0 C80.95 0 85.9 0 91 0 C90.27874575 2.88501701 89.57320883 5.20957033 88.42578125 7.89453125 C88.09505615 8.66949951 87.76433105 9.44446777 87.42358398 10.24291992 C87.05692627 11.09088135 86.69026855 11.93884277 86.3125 12.8125 C85.73060913 14.16468628 85.73060913 14.16468628 85.13696289 15.54418945 C80.0497813 27.29234136 74.73263471 38.93831349 69.44537354 50.5973053 C67.04696111 55.88901676 64.67025241 61.19006064 62.3125 66.5 C62.01013428 67.18022217 61.70776855 67.86044434 61.39624023 68.5612793 C58.67770234 74.69467133 56.05289043 80.80014327 53.8125 87.125 C49.43433908 98.53714318 43.06396448 110.79788513 31.6875 116.4375 C26.79322801 118.17417716 22.01937972 118.41644127 16.875 118.5 C15.7471106 118.52791626 15.7471106 118.52791626 14.59643555 118.55639648 C8.30353047 118.48541092 2.91056598 116.75503956 -1.72705078 112.36523438 C-2.14712402 111.91470703 -2.56719727 111.46417969 -3 111 C-1.77472971 106.94718288 -0.30119506 103.55639236 2 100 C4.52117267 100.46688383 6.06975177 101.04769247 8.2109375 102.51171875 C13.44427541 105.30429822 19.23867169 104.67860169 25 104 C30.80437976 101.09781012 33.08686156 95.89694856 36.19140625 90.328125 C37.90815939 83.26206859 33.02021177 75.50804287 30.078125 69.12890625 C29.70079727 68.30055771 29.32346954 67.47220917 28.93470764 66.61875916 C28.12759022 64.84768414 27.31854639 63.07748596 26.50772095 61.30810547 C24.36861835 56.6384434 22.24576724 51.96139657 20.12109375 47.28515625 C19.69189133 46.34141144 19.2626889 45.39766663 18.82048035 44.42532349 C14.93669378 35.87878495 11.09716593 27.31314346 7.2989502 18.72824097 C6.64293963 17.24641287 5.98547553 15.76522738 5.32653809 14.28469849 C4.41838951 12.24350852 3.51506761 10.20025714 2.61328125 8.15625 C1.85204956 6.43631836 1.85204956 6.43631836 1.07543945 4.68164062 C0 2 0 2 0 0 Z " fill="#070707" transform="translate(1164,106)"/>
<path d="M0 0 C8.25 0 16.5 0 25 0 C25 39.6 25 79.2 25 120 C16.75 120 8.5 120 0 120 C0 80.4 0 40.8 0 0 Z " fill="#020202" transform="translate(897,70)"/>
<path d="M0 0 C9.3740625 -0.12375 9.3740625 -0.12375 18.9375 -0.25 C20.89163818 -0.28641602 22.84577637 -0.32283203 24.85913086 -0.36035156 C26.43602404 -0.37205158 28.01292946 -0.38224028 29.58984375 -0.390625 C30.38588013 -0.41108887 31.1819165 -0.43155273 32.0020752 -0.45263672 C38.12982383 -0.45638286 42.60095036 1.18366142 48 4 C49.0725 4.53625 50.145 5.0725 51.25 5.625 C56.15608384 9.86207241 58.55622292 14.81252288 59.44921875 21.2265625 C59.71514823 29.05772729 58.65150506 35.96407189 53.26538086 41.91723633 C43.06381661 51.2964307 31.1208741 50.75370126 18.1875 50.375 C12.185625 50.25125 6.18375 50.1275 0 50 C0 33.5 0 17 0 0 Z " fill="#FBFBFB" transform="translate(985,94)"/>
<path d="M0 0 C1.55336242 0.02009357 3.1067499 0.0383393 4.66015625 0.0546875 C8.44072979 0.09846321 12.22008511 0.16733026 16 0.25 C16.08832866 2.30911469 16.15105115 4.36933715 16.203125 6.4296875 C16.24083008 7.57679199 16.27853516 8.72389648 16.31738281 9.90576172 C15.72599964 16.13712069 11.66744458 20.00570426 7.0546875 23.88671875 C0.7078404 28.09783974 -7.55236756 29.29195812 -15 28.25 C-19.83617115 26.97452629 -23.76647641 25.28723617 -26.5625 21 C-28.45804545 16.94805422 -28.49956609 13.67472823 -28 9.25 C-26.44237609 4.96653423 -23.84198049 3.04710606 -19.77734375 1.07910156 C-13.45434568 -0.8084601 -6.54098286 -0.14736327 0 0 Z " fill="#F7F7F7" transform="translate(1119,153.75)"/>
<path d="M0 0 C-0.86625 0.4021875 -0.86625 0.4021875 -1.75 0.8125 C-4.0452895 1.91531263 -4.0452895 1.91531263 -5.875 3.625 C-8.67902774 5.43937089 -10.72814677 5.2230809 -14 5 C-14 5.66 -14 6.32 -14 7 C-20 10 -26 13 -32 16 C-32 16.66 -32 17.32 -32 18 C-32.66 18 -33.32 18 -34 18 C-34.226875 18.556875 -34.45375 19.11375 -34.6875 19.6875 C-37.63054802 24.87287032 -42.14719765 27.76479843 -47 31 C-47.9075 31.9075 -48.815 32.815 -49.75 33.75 C-50.4925 34.4925 -51.235 35.235 -52 36 C-52.66 36 -53.32 36 -54 36 C-54.27199219 36.73863281 -54.54398438 37.47726563 -54.82421875 38.23828125 C-55.93624463 40.85024901 -57.17357235 42.88262286 -58.8125 45.1875 C-61.6344633 49.29280114 -63.83112466 53.51522927 -65.921875 58.03125 C-67 60 -67 60 -69 61 C-69.72045764 62.9812585 -70.38001259 64.98504093 -71 67 C-72.1028244 70.07215367 -73.42545627 72.72926498 -75.125 75.5 C-77.01294045 79.02415551 -77.19537602 80.19016758 -77 84 C-77.84219262 86.88751755 -78.82336325 89.60166737 -80.04223633 92.3503418 C-81.05933249 95.16414363 -81.32665803 97.41256878 -81.44921875 100.39453125 C-81.49312744 101.42586182 -81.53703613 102.45719238 -81.58227539 103.51977539 C-81.61699951 104.60637451 -81.65172363 105.69297363 -81.6875 106.8125 C-81.7280249 107.92294678 -81.7685498 109.03339355 -81.81030273 110.17749023 C-82.07740186 118.85098436 -81.83664501 127.36324916 -81 136 C-80.34 136 -79.68 136 -79 136 C-78.96261719 136.6290625 -78.92523438 137.258125 -78.88671875 137.90625 C-78.49816205 142.9651058 -77.76857854 147.25208069 -75.8203125 151.93359375 C-74.8901527 154.27671058 -74.19439669 156.63942101 -73.5 159.0625 C-72.60327485 162.1417308 -71.61113133 165.06741001 -70.3125 168 C-69 171 -69 171 -69 173 C-67.68 172.67 -66.36 172.34 -65 172 C-64.896875 172.721875 -64.79375 173.44375 -64.6875 174.1875 C-63.93970722 177.24665229 -62.65222195 179.34207773 -61 182 C-61 182.66 -61 183.32 -61 184 C-60.34 184 -59.68 184 -59 184 C-58.67 184.99 -58.34 185.98 -58 187 C-54.48809191 188.22969878 -54.48809191 188.22969878 -51 189 C-50.96917227 183.87500857 -50.95021175 178.75006191 -50.9375 173.625 C-50.935224 172.83633545 -50.932948 172.0476709 -50.93060303 171.23510742 C-50.90908403 161.37792248 -51.00438605 151.53294455 -51.29296875 141.6796875 C-51.31961105 140.74476471 -51.34625336 139.80984192 -51.373703 138.84658813 C-51.50599284 134.2858163 -51.65291063 129.7261278 -51.82006836 125.16650391 C-52.43129337 106.66693571 -52.43129337 106.66693571 -50 99 C-49.34 98.67 -48.68 98.34 -48 98 C-48.33 131.66 -48.66 165.32 -49 200 C-69.79932562 182.17200662 -81.22640922 156.10773354 -84.75 129.1875 C-86.62810694 102.3901205 -82.32805641 77.48149034 -69 54 C-68.44570312 53.01773438 -67.89140625 52.03546875 -67.3203125 51.0234375 C-57.5894235 34.8673682 -21.47090677 -7.15696892 0 0 Z " fill="#D74EC7" transform="translate(111,12)"/>
<path d="M0 0 C3.18403731 1.59201866 3.61481927 4.86852604 4.75 8.0625 C5.28247037 9.51956111 5.81502494 10.97659146 6.34765625 12.43359375 C6.61980957 13.18624512 6.89196289 13.93889648 7.17236328 14.71435547 C8.49184429 18.35830271 9.83700957 21.9924546 11.1875 25.625 C11.54376465 26.5996521 11.54376465 26.5996521 11.90722656 27.59399414 C13.0140207 30.57808142 14.20166784 33.38641251 15.67578125 36.2109375 C17 39 17 39 17 43 C5.78 43 -5.44 43 -17 43 C-13.64554243 31.81847476 -13.64554243 31.81847476 -11.625 27.1875 C-9.79111921 22.90844483 -8.0749386 18.60810581 -6.4375 14.25 C-4.5625457 9.31934486 -2.46721273 4.66029071 0 0 Z " fill="#F6F6F6" transform="translate(401,103)"/>
<path d="M0 0 C0.33 0 0.66 0 1 0 C1 53.46 1 106.92 1 162 C-11.61034035 162 -20.04347442 159.60678555 -30 152 C-31.546875 150.8553125 -31.546875 150.8553125 -33.125 149.6875 C-37.26646761 145.8161281 -41.58171727 141.260533 -43.86898422 136.00226593 C-45.86781676 132.46368196 -49.28168441 131.31172344 -53 130 C-55.75805946 129.5062093 -58.41332564 129.47338004 -61.20996094 129.51757812 C-61.98854965 129.51366562 -62.76713837 129.50975311 -63.56932068 129.50572205 C-65.24813789 129.4997796 -66.92700703 129.50285786 -68.60579681 129.5141449 C-71.28387508 129.53157211 -73.96088883 129.52380568 -76.63897705 129.5098877 C-83.2985005 129.48039198 -89.95781563 129.49330017 -96.61737061 129.50506592 C-102.23937677 129.51336808 -107.86091559 129.50491235 -113.48285675 129.47593689 C-116.08376047 129.4689855 -118.68377367 129.48534528 -121.28460693 129.50305176 C-134.11842134 129.50002925 -148.34701639 128.8264918 -160 123 C-160 110.46 -160 97.92 -160 85 C-151 88 -151 88 -147.02734375 89.38671875 C-122.42026636 97.47482215 -99.65877624 92.8268909 -77.0859375 81.57421875 C-76.06757813 81.05472656 -75.04921875 80.53523438 -74 80 C-74 80.66 -74 81.32 -74 82 C-78.38461538 85 -78.38461538 85 -81 85 C-81 85.66 -81 86.32 -81 87 C-99.8973974 95.10401632 -120.40059368 100.47265813 -141 95 C-141.66 94.34 -142.32 93.68 -143 93 C-146.08347826 92.83318891 -146.08347826 92.83318891 -149 93 C-149 92.34 -149 91.68 -149 91 C-150.98 91 -152.96 91 -155 91 C-155 90.34 -155 89.68 -155 89 C-155.66 89 -156.32 89 -157 89 C-157.33 99.89 -157.66 110.78 -158 122 C-154.04 122.33 -150.08 122.66 -146 123 C-143.66058918 123.64501622 -141.32668813 124.3104993 -139 125 C-135.58509745 125.51965501 -132.16110623 125.81117309 -128.71875 126.0859375 C-127.68915161 126.16951508 -126.65955322 126.25309265 -125.59875488 126.33920288 C-111.34148346 127.39041884 -97.04592381 127.45529246 -82.75695801 127.60089111 C-78.93424691 127.64172542 -75.1116662 127.69244365 -71.2890625 127.7421875 C-63.85946626 127.8374841 -56.42980371 127.92232812 -49 128 C-49 128.66 -49 129.32 -49 130 C-48.2575 130.268125 -47.515 130.53625 -46.75 130.8125 C-40.78755694 133.38719132 -39.46092123 136.00819179 -37 142 C-35.41754725 143.75149165 -35.41754725 143.75149165 -34 145 C-34 145.66 -34 146.32 -34 147 C-33.4225 147.0825 -32.845 147.165 -32.25 147.25 C-30 148 -30 148 -28.1875 149.88671875 C-24.46376335 153.48411434 -19.72958785 155.03590727 -15 157 C-14.2575 157.31324219 -13.515 157.62648438 -12.75 157.94921875 C-8.34016839 159.71487398 -4.8545167 160.30649761 0 161 C0 107.87 0 54.74 0 0 Z " fill="#BB5EDB" transform="translate(269,117)"/>
<path d="M0 0 C24.42043938 6.73667293 47.38455412 27.29500847 59.87207031 48.96484375 C65.25810921 58.68302996 69.89836776 68.53895468 72.9375 79.25 C73.12481689 79.90911377 73.31213379 80.56822754 73.50512695 81.24731445 C76.75823173 93.82020702 77.29264198 106.56821021 77.22705078 119.48217773 C77.22648492 121.07057691 77.22680662 122.65897661 77.22793579 124.24737549 C77.2285035 128.50879528 77.21684487 132.77009969 77.20278788 137.03149295 C77.19018212 141.50374164 77.18910233 145.97599373 77.18673706 150.44825745 C77.18055096 158.89449128 77.16417948 167.34067258 77.14403808 175.78688341 C77.12158911 185.41219188 77.11066315 195.03750301 77.10064721 204.66283119 C77.07981032 224.44191664 77.04469089 244.22095499 77 264 C72.16422707 264.09200044 68.52850538 263.76722161 64 262 C70 259 70 259 75 260 C75 208.85 75 157.7 75 105 C74.34 104.67 73.68 104.34 73 104 C73.04125 102.783125 73.0825 101.56625 73.125 100.3125 C73.14480938 94.11216291 72.05485097 88.093648 71 82 C70.34 82 69.68 82 69 82 C68.82984375 81.01 68.6596875 80.02 68.484375 79 C67.18942862 71.81918154 65.89759403 65.28644198 62 59 C61.01 58.505 61.01 58.505 60 58 C60 56.02 60 54.04 60 52 C59.01 51.67 58.02 51.34 57 51 C55.96986723 49.35178756 54.96885372 47.68496298 54 46 C53.01 45.505 53.01 45.505 52 45 C51.690625 43.845 51.38125 42.69 51.0625 41.5 C50.711875 40.345 50.36125 39.19 50 38 C49.01 37.67 48.02 37.34 47 37 C45.17578125 35.22265625 45.17578125 35.22265625 43.3125 33.0625 C42.68988281 32.35222656 42.06726563 31.64195313 41.42578125 30.91015625 C40 29 40 29 40 27 C37.36 26.34 34.72 25.68 32 25 C31.979375 24.236875 31.95875 23.47375 31.9375 22.6875 C31.20887992 19.63350229 31.20887992 19.63350229 27.6875 18.1875 C24.0110916 16.79564576 24.0110916 16.79564576 20 17 C20 16.01 20 15.02 20 14 C19.01 13.67 18.02 13.34 17 13 C16.1028125 12.071875 16.1028125 12.071875 15.1875 11.125 C12.68461035 8.69362148 10.11621926 7.52348497 7 6 C6.67 5.34 6.34 4.68 6 4 C4.02 4 2.04 4 0 4 C0 2.68 0 1.36 0 0 Z " fill="#832FDD" transform="translate(192,14)"/>
<path d="M0 0 C1.60004883 0.00966797 1.60004883 0.00966797 3.23242188 0.01953125 C4.33521484 0.03628906 5.43800781 0.05304688 6.57421875 0.0703125 C7.69634766 0.07933594 8.81847656 0.08835938 9.97460938 0.09765625 C12.73719784 0.12116764 15.49934807 0.15403095 18.26171875 0.1953125 C18.31776519 1.78084171 18.35757372 3.36694983 18.390625 4.953125 C18.41455322 5.83629395 18.43848145 6.71946289 18.46313477 7.62939453 C18.13532635 11.80547511 16.25257413 14.37686232 13.26171875 17.1953125 C7.68702294 21.36046108 2.14477308 22.56248797 -4.7421875 22.484375 C-8.08424678 22.00039773 -10.1955424 20.31426154 -12.73828125 18.1953125 C-15.20234573 14.49921578 -15.41692932 11.48503859 -14.73828125 7.1953125 C-11.20892287 1.18233156 -6.7006708 -0.07166493 0 0 Z " fill="#F1F1F1" transform="translate(829.73828125,152.8046875)"/>
<path d="M0 0 C5.37310817 1.07462163 8.03874079 2.52203647 11.640625 6.66015625 C13.0735751 8.26937508 13.0735751 8.26937508 16 9 C16 10.32 16 11.64 16 13 C16.63550781 13.25523438 17.27101562 13.51046875 17.92578125 13.7734375 C20.90531349 15.53534546 20.9700384 17.86632777 21.8828125 21.05078125 C23.3482667 24.91937538 25.4386417 28.27412868 27.5625 31.8125 C31.03161926 37.67264723 33.07719469 42.65510154 33.68359375 49.546875 C33.85057818 51.98839161 33.85057818 51.98839161 35.00537109 53.87524414 C36.12402724 56.26495068 36.24466129 57.82526907 36.23046875 60.44921875 C36.22853516 61.29806641 36.22660156 62.14691406 36.22460938 63.02148438 C36.20624023 64.34116211 36.20624023 64.34116211 36.1875 65.6875 C36.18685547 66.54794922 36.18621094 67.40839844 36.18554688 68.29492188 C36.14732139 73.9310572 35.70809409 79.40888903 35 85 C34.01 85.33 33.02 85.66 32 86 C31.87625 87.134375 31.7525 88.26875 31.625 89.4375 C30.6426875 96.96413764 29.51414947 102.9380515 25.12109375 109.2734375 C23.82147506 111.11654103 23.82147506 111.11654103 23 114 C21.70644173 115.37195574 20.37701298 116.71182656 19 118 C18.34 117.67 17.68 117.34 17 117 C17.79664063 115.67548828 17.79664063 115.67548828 18.609375 114.32421875 C22.89372805 107.09380312 26.60053303 100.10254788 29 92 C29.29777344 91.08863281 29.59554687 90.17726563 29.90234375 89.23828125 C36.12290794 67.30864251 31.69535512 44.87706028 21.22607422 25.17236328 C16.44288769 16.69749396 10.06423456 9.63270892 3 3 C1.9966006 2.003411 0.99540941 1.00456962 0 0 Z " fill="#8B38DD" transform="translate(200,58)"/>
<path d="M0 0 C-0.86625 0.4021875 -0.86625 0.4021875 -1.75 0.8125 C-4.0452895 1.91531263 -4.0452895 1.91531263 -5.875 3.625 C-8.67902774 5.43937089 -10.72814677 5.2230809 -14 5 C-14 5.66 -14 6.32 -14 7 C-20 10 -26 13 -32 16 C-32 16.66 -32 17.32 -32 18 C-32.66 18 -33.32 18 -34 18 C-34.226875 18.556875 -34.45375 19.11375 -34.6875 19.6875 C-37.63054802 24.87287032 -42.14719765 27.76479843 -47 31 C-47.9075 31.9075 -48.815 32.815 -49.75 33.75 C-50.4925 34.4925 -51.235 35.235 -52 36 C-52.66 36 -53.32 36 -54 36 C-54.27199219 36.73863281 -54.54398438 37.47726563 -54.82421875 38.23828125 C-55.93624463 40.85024901 -57.17357235 42.88262286 -58.8125 45.1875 C-61.6344633 49.29280114 -63.83112466 53.51522927 -65.921875 58.03125 C-67 60 -67 60 -69 61 C-71.30826653 64.5125795 -73.15723769 68.2267248 -75 72 C-75.7109375 70.46484375 -75.7109375 70.46484375 -76 68 C-74.98245778 65.38473798 -73.9192376 63.03510398 -72.625 60.5625 C-72.07634277 59.49841919 -72.07634277 59.49841919 -71.51660156 58.4128418 C-61.09944023 38.66935611 -45.98586982 22.74868182 -27 11 C-25.61167969 10.13568359 -25.61167969 10.13568359 -24.1953125 9.25390625 C-5.71636836 -1.90545612 -5.71636836 -1.90545612 0 0 Z " fill="#C94DCE" transform="translate(111,12)"/>
<path d="M0 0 C4.57221874 0.53790809 7.32446728 2.28010578 11 5 C11.56976563 5.41121094 12.13953125 5.82242188 12.7265625 6.24609375 C20.11322152 11.98946519 25.23299232 20.8085903 27 30 C28.11137683 43.31888107 24.88649071 54.52410627 16.1875 64.8125 C8.97463442 72.45678931 0.51338548 76.82339227 -10.08984375 77.21484375 C-20.85103778 77.38298741 -20.85103778 77.38298741 -25 76 C-25 75.34 -25 74.68 -25 74 C-24.39526855 74.01047363 -23.79053711 74.02094727 -23.16748047 74.03173828 C-20.4033633 74.07354668 -17.63931292 74.09940451 -14.875 74.125 C-13.44800781 74.15013672 -13.44800781 74.15013672 -11.9921875 74.17578125 C-5.42862041 74.22136158 -0.59056843 73.72704562 5 70 C6.546875 69.01 6.546875 69.01 8.125 68 C11.04489239 66.30925867 11.04489239 66.30925867 12 64 C12.99 64 13.98 64 15 64 C15.33 62.35 15.66 60.7 16 59 C16.66 59 17.32 59 18 59 C18 58.34 18 57.68 18 57 C18.66 56.67 19.32 56.34 20 56 C20.65555119 53.47266765 20.65555119 53.47266765 21 51 C21.66 51 22.32 51 23 51 C25.02123487 39.88320822 25.64455754 26.66481097 19 17 C19 16.34 19 15.68 19 15 C17.68 14.67 16.36 14.34 15 14 C15 13.34 15 12.68 15 12 C14.34 12 13.68 12 13 12 C12.773125 11.21625 12.54625 10.4325 12.3125 9.625 C11.22916667 6.80208333 11.22916667 6.80208333 8.5 5.75 C7.675 5.5025 6.85 5.255 6 5 C5.34 4.67 4.68 4.34 4 4 C4 3.34 4 2.68 4 2 C2.68 1.34 1.36 0.68 0 0 Z " fill="#A74AD2" transform="translate(160,88)"/>
<path d="M0 0 C0.33 0 0.66 0 1 0 C0.67 35.31 0.34 70.62 0 107 C-0.99 106.67 -1.98 106.34 -3 106 C-2.91552454 93.36045106 -2.82061296 80.72102733 -2.71247292 68.08165741 C-2.66258205 62.2123398 -2.61625131 56.34303957 -2.578125 50.47363281 C-2.54118124 44.80661514 -2.4947965 39.13974539 -2.44193649 33.47285461 C-2.42344084 31.31360984 -2.40831517 29.15433341 -2.39665604 26.99504089 C-2.37971093 23.96463967 -2.35065585 20.93457362 -2.31884766 17.90429688 C-2.31668747 17.01668671 -2.31452728 16.12907654 -2.31230164 15.21456909 C-2.24035674 9.82950848 -1.50072298 5.17708541 0 0 Z " fill="#F4C7F3" transform="translate(64,106)"/>
<path d="M0 0 C1.2065625 0.0309375 1.2065625 0.0309375 2.4375 0.0625 C-0.6757497 2.65687475 -3.89849152 4.98047457 -7.25 7.25 C-26.12767046 20.43351429 -38.69013052 38.47242334 -43.5625 61.0625 C-44.2225 60.7325 -44.8825 60.4025 -45.5625 60.0625 C-44.55567124 50.79967538 -41.55131593 42.4450878 -37.5625 34.0625 C-36.9025 34.0625 -36.2425 34.0625 -35.5625 34.0625 C-35.5625 33.0725 -35.5625 32.0825 -35.5625 31.0625 C-34.9025 31.0625 -34.2425 31.0625 -33.5625 31.0625 C-33.459375 30.423125 -33.35625 29.78375 -33.25 29.125 C-33.023125 28.444375 -32.79625 27.76375 -32.5625 27.0625 C-31.5725 26.7325 -30.5825 26.4025 -29.5625 26.0625 C-28.98029265 24.18803867 -28.98029265 24.18803867 -28.5625 22.0625 C-27.51171875 20.17578125 -27.51171875 20.17578125 -26.25 18.375 C-25.84136719 17.77300781 -25.43273437 17.17101562 -25.01171875 16.55078125 C-23.2711559 14.76330296 -21.99185413 14.45098947 -19.5625 14.0625 C-19.5625 13.4025 -19.5625 12.7425 -19.5625 12.0625 C-18.5725 11.7325 -17.5825 11.4025 -16.5625 11.0625 C-15.82926204 9.04741642 -15.82926204 9.04741642 -15.5625 7.0625 C-12.0975 6.5675 -12.0975 6.5675 -8.5625 6.0625 C-8.5625 5.0725 -8.5625 4.0825 -8.5625 3.0625 C-7.758125 2.753125 -6.95375 2.44375 -6.125 2.125 C-1.0625 0.02591463 -1.0625 0.02591463 0 0 Z " fill="#BD46CD" transform="translate(107.5625,48.9375)"/>
<path d="M0 0 C0 0.66 0 1.32 0 2 C-0.639375 2.28875 -1.27875 2.5775 -1.9375 2.875 C-4.15206079 3.82823451 -4.15206079 3.82823451 -5 6 C-5.66 6 -6.32 6 -7 6 C-7.33 6.99 -7.66 7.98 -8 9 C-8.7425 9.66 -9.485 10.32 -10.25 11 C-17.48472257 18.27690754 -18.45736389 26.52927556 -18.5 36.375 C-18.50620361 37.33849365 -18.51240723 38.3019873 -18.51879883 39.29467773 C-18.42658044 44.43776458 -18.10506955 47.7222712 -15 52 C-15 52.99 -15 53.98 -15 55 C-14.360625 55.226875 -13.72125 55.45375 -13.0625 55.6875 C-11 57 -11 57 -10.25 59.625 C-10.12625 60.800625 -10.12625 60.800625 -10 62 C-8.68 62.33 -7.36 62.66 -6 63 C-6 63.66 -6 64.32 -6 65 C-5.34 65 -4.68 65 -4 65 C-3.608125 65.45375 -3.21625 65.9075 -2.8125 66.375 C-0.19861396 68.71848404 2.64083629 69.17605418 6 70 C6 70.99 6 71.98 6 73 C-4.36201517 70.34307303 -11.12799614 63.6290621 -17 55 C-17.45761719 54.33613281 -17.91523437 53.67226562 -18.38671875 52.98828125 C-23.11762152 44.53905491 -22.28212525 31.70653846 -19.9375 22.5625 C-17.10714483 14.92712327 -9.60758124 0 0 0 Z " fill="#B650CE" transform="translate(128,90)"/>
<path d="M0 0 C0.80156151 2.8142263 1.11600867 5.27924861 1.08229065 8.20147705 C1.07525116 9.03156281 1.06821167 9.86164856 1.06095886 10.71688843 C1.04801285 11.6188797 1.03506683 12.52087097 1.02172852 13.45019531 C1.01212097 14.40662933 1.00251343 15.36306335 0.99261475 16.34848022 C0.95964544 19.50843719 0.91930506 22.66825501 0.87890625 25.828125 C0.85460312 28.0195873 0.83075966 30.21105474 0.80735779 32.40252686 C0.74453609 38.16965595 0.67546391 43.93669397 0.60510254 49.70373535 C0.53440189 55.58890639 0.46959527 61.47414198 0.40429688 67.359375 C0.27530917 78.90632095 0.13972006 90.45317928 0 102 C-0.99 101.01 -1.98 100.02 -3 99 C-2.34 99 -1.68 99 -1 99 C-1.02949738 97.94923279 -1.05899475 96.89846558 -1.08938599 95.81585693 C-1.36701642 85.87178139 -1.63235505 75.92744216 -1.8859272 65.98272324 C-2.01665216 60.87110679 -2.15157616 55.75967584 -2.29638672 50.6484375 C-2.43620127 45.70791212 -2.56460653 40.76720545 -2.68539047 35.8261795 C-2.73322401 33.94921518 -2.78504016 32.07234763 -2.84106827 30.19561005 C-3.43696087 10.05485196 -3.43696087 10.05485196 -1 1 C-0.67 0.67 -0.34 0.34 0 0 Z " fill="#CA44C5" transform="translate(62,110)"/>
<path d="M0 0 C0 0.66 0 1.32 0 2 C-16.8671024 -0.8671024 -16.8671024 -0.8671024 -19 -3 C-20.49496842 -3.20699563 -21.9966592 -3.36679259 -23.5 -3.5 C-27.88888889 -3.88888889 -27.88888889 -3.88888889 -29 -5 C-33.34021779 -5.24584138 -37.686777 -5.22868497 -42.03320312 -5.24023438 C-44.19963436 -5.24977812 -46.36504853 -5.28070255 -48.53125 -5.3125 C-56.54833722 -5.3710458 -63.66374645 -4.74590288 -71.45214844 -2.54980469 C-74 -2 -74 -2 -77 -3 C-53.86639844 -12.78729297 -22.80343994 -9.44172005 0 0 Z " fill="#9A48D0" transform="translate(191,13)"/>
<path d="M0 0 C10.56 0 21.12 0 32 0 C32 0.66 32 1.32 32 2 C32.7425 2.268125 33.485 2.53625 34.25 2.8125 C40.21244306 5.38719132 41.53907877 8.00819179 44 14 C45.58245275 15.75149165 45.58245275 15.75149165 47 17 C47 17.66 47 18.32 47 19 C47.5775 19.0825 48.155 19.165 48.75 19.25 C51 20 51 20 52.8125 21.88671875 C55.18946782 24.18303945 57.22912117 25.25489102 60.25 26.5625 C61.21035156 26.98015625 62.17070312 27.3978125 63.16015625 27.828125 C66.74626606 29.30795023 70.34815358 30.69084751 74 32 C68.92672831 33.68335102 64.79396278 31.94996724 60 30 C56.81620521 28.22216899 53.90819166 26.19517942 51 24 C49.96875 23.236875 48.9375 22.47375 47.875 21.6875 C43.71713178 17.8007971 39.45391557 13.25224229 37.10644531 8.0012207 C35.11389594 4.39730914 31.76452806 3.14731146 28 2 C23.1671168 1.39804971 18.36634875 1.30440024 13.5 1.25 C12.200625 1.22035156 10.90125 1.19070312 9.5625 1.16015625 C6.37493894 1.0898424 3.18809318 1.03695232 0 1 C0 0.67 0 0.34 0 0 Z " fill="#A046D0" transform="translate(188,245)"/>
<path d="M0 0 C10.87737087 10.29499004 21.89199697 29.94707698 24 45 C23.55859375 47.26171875 23.55859375 47.26171875 23 49 C22.01 45.535 22.01 45.535 21 42 C20.34 42 19.68 42 19 42 C18.81824219 41.20335937 18.63648438 40.40671875 18.44921875 39.5859375 C16.57760208 31.45656125 16.57760208 31.45656125 13 24 C12.34 23.67 11.68 23.34 11 23 C11 21.02 11 19.04 11 17 C10.01 16.67 9.02 16.34 8 16 C6.96986723 14.35178756 5.96885372 12.68496298 5 11 C4.34 10.67 3.68 10.34 3 10 C2.1484375 7.71484375 2.1484375 7.71484375 1.375 4.9375 C1.11460937 4.01839844 0.85421875 3.09929688 0.5859375 2.15234375 C0.39257812 1.44207031 0.19921875 0.73179688 0 0 Z " fill="#7D37DC" transform="translate(241,49)"/>
<path d="M0 0 C-0.86625 0.4021875 -0.86625 0.4021875 -1.75 0.8125 C-4.0452895 1.91531263 -4.0452895 1.91531263 -5.875 3.625 C-8.67902774 5.43937089 -10.72814677 5.2230809 -14 5 C-14 5.66 -14 6.32 -14 7 C-23 11.5 -23 11.5 -32 16 C-32 16.66 -32 17.32 -32 18 C-32.66 18 -33.32 18 -34 18 C-34 18.66 -34 19.32 -34 20 C-35.65 20.33 -37.3 20.66 -39 21 C-39.33 21.99 -39.66 22.98 -40 24 C-41.92578125 25.75390625 -41.92578125 25.75390625 -44.3125 27.5625 C-45.09238281 28.16191406 -45.87226562 28.76132812 -46.67578125 29.37890625 C-48.73331348 30.81399176 -50.72588364 31.95401055 -53 33 C-45.86865872 23.94126919 -36.76218507 17.04095611 -27 11 C-26.07445313 10.42378906 -25.14890625 9.84757812 -24.1953125 9.25390625 C-5.71636836 -1.90545612 -5.71636836 -1.90545612 0 0 Z " fill="#AE4BCD" transform="translate(111,12)"/>
<path d="M0 0 C1.25361328 0.00064453 2.50722656 0.00128906 3.79882812 0.00195312 C5.11173828 0.01806641 6.42464844 0.03417969 7.77734375 0.05078125 C9.06318359 0.04755859 10.34902344 0.04433594 11.67382812 0.04101562 C18.91859019 0.08169576 25.68642246 0.55998385 32.71484375 2.36328125 C32.71484375 3.02328125 32.71484375 3.68328125 32.71484375 4.36328125 C35.18984375 5.35328125 35.18984375 5.35328125 37.71484375 6.36328125 C34.94447018 7.74846803 33.74475162 6.92785086 30.83984375 5.98828125 C29.13266017 5.44300172 27.42437045 4.90116971 25.71484375 4.36328125 C25.15104004 4.184021 24.58723633 4.00476074 24.00634766 3.82006836 C20.82882239 3.18666225 17.78184961 3.2523509 14.54296875 3.265625 C13.51934235 3.26774742 13.51934235 3.26774742 12.47503662 3.26991272 C10.30492691 3.27549041 8.13492205 3.28803871 5.96484375 3.30078125 C4.48958483 3.30579914 3.01432428 3.31036154 1.5390625 3.31445312 C-2.06904423 3.3254525 -5.67709 3.34270172 -9.28515625 3.36328125 C-6.62955821 -0.18005364 -4.26372365 -0.01119246 0 0 Z " fill="#973FCF" transform="translate(140.28515625,38.63671875)"/>
<path d="M0 0 C0.33 0 0.66 0 1 0 C1.50401921 11.05482128 1.37467347 21.49691917 -1.1875 32.3125 C-1.3836792 33.16416748 -1.5798584 34.01583496 -1.78198242 34.89331055 C-3.08729683 39.96274082 -4.93713039 43.98358175 -7.9074707 48.29760742 C-9.17804873 50.12372663 -9.17804873 50.12372663 -10 53 C-11.29355827 54.37195574 -12.62298702 55.71182656 -14 57 C-14.66 56.67 -15.32 56.34 -16 56 C-15.46890625 55.11699219 -14.9378125 54.23398438 -14.390625 53.32421875 C-10.11024142 46.10050213 -6.37173313 39.1053404 -4 31 C-3.71382812 30.030625 -3.42765625 29.06125 -3.1328125 28.0625 C-0.69777487 18.78616617 -0.31037545 9.53601802 0 0 Z " fill="#964DD5" transform="translate(233,119)"/>
<path d="M0 0 C0.33 0 0.66 0 1 0 C1 22.11 1 44.22 1 67 C-8 67 -8 67 -11 65 C-6.46900722 63.20867727 -5.01822701 62.9963546 0 64 C0 42.88 0 21.76 0 0 Z " fill="#922BEC" transform="translate(267,210)"/>
<path d="M0 0 C5.90623892 1.62930729 11.00950324 3.92622968 16.3125 6.9375 C16.91078613 7.27330078 17.50907227 7.60910156 18.12548828 7.95507812 C21.5588121 9.95005246 24.33368393 12.05717708 27 15 C22.34258409 13.56915026 18.03147418 11.68340658 13.6875 9.5 C12.73907227 9.03787109 12.73907227 9.03787109 11.77148438 8.56640625 C7.12210379 6.24420759 7.12210379 6.24420759 6 4 C4.02 4 2.04 4 0 4 C0 2.68 0 1.36 0 0 Z " fill="#883BDE" transform="translate(192,14)"/>
<path d="M0 0 C3 3.625 3 3.625 3 7 C3.66 7 4.32 7 5 7 C6.71979056 14.1331561 7.25870025 20.80233992 7.125 28.125 C7.11597656 29.08148438 7.10695313 30.03796875 7.09765625 31.0234375 C7.07439827 33.34923525 7.04172213 35.67447294 7 38 C6.67 38 6.34 38 6 38 C6 34.7 6 31.4 6 28 C5.34 27.67 4.68 27.34 4 27 C4.04125 25.783125 4.0825 24.56625 4.125 23.3125 C4.14480938 17.11216291 3.05485097 11.093648 2 5 C1.34 5 0.68 5 0 5 C-0.5625 3.0625 -0.5625 3.0625 -1 1 C-0.67 0.67 -0.34 0.34 0 0 Z " fill="#7F31E6" transform="translate(261,91)"/>
<path d="M0 0 C0.67289063 -0.00128906 1.34578125 -0.00257812 2.0390625 -0.00390625 C6.27960807 0.08827952 9.80454192 0.84337808 13.75 2.375 C10.19193142 3.56102286 7.43648882 3.40021795 3.6875 3.3125 C-1.81818865 3.22685743 -6.86290507 3.62504227 -12.19921875 5.03515625 C-14.514238 5.41878801 -16.03505767 5.08998138 -18.25 4.375 C-12.21121077 1.12334426 -6.77230293 -0.01249502 0 0 Z " fill="#A447CE" transform="translate(146.25,84.625)"/>
<path d="M0 0 C-6.57946098 3.52471124 -12.73029491 3.18319454 -20.0625 3.1875 C-21.16400391 3.19974609 -22.26550781 3.21199219 -23.40039062 3.22460938 C-24.98303711 3.22750977 -24.98303711 3.22750977 -26.59765625 3.23046875 C-27.56195557 3.23457764 -28.52625488 3.23868652 -29.51977539 3.24291992 C-32 3 -32 3 -35 1 C-23.31556633 0.00859351 -11.72098848 -0.10709533 0 0 Z " fill="#F5C7FB" transform="translate(168,208)"/>
<path d="M0 0 C0.99 0.33 1.98 0.66 3 1 C-0.41047021 4.6110861 -3.88167929 7.25445286 -8 10 C-8.9075 10.9075 -9.815 11.815 -10.75 12.75 C-11.4925 13.4925 -12.235 14.235 -13 15 C-13.66 15 -14.32 15 -15 15 C-15.4021875 16.175625 -15.4021875 16.175625 -15.8125 17.375 C-17 20 -17 20 -20 22 C-18.01451398 15.27989347 -15.96788523 12.50288915 -10 9 C-4.22757261 5.19740919 -4.22757261 5.19740919 0 0 Z " fill="#C542D4" transform="translate(72,33)"/>
<path d="M0 0 C3.73069283 0.74613857 6.57404607 1.53173403 10 3 C10 3.33 10 3.66 10 4 C8.02 4 6.04 4 4 4 C4 3.34 4 2.68 4 2 C3.34 2 2.68 2 2 2 C1.67 12.89 1.34 23.78 1 35 C0.67 35 0.34 35 0 35 C0 23.45 0 11.9 0 0 Z " fill="#C63CD4" transform="translate(110,204)"/>
<path d="M0 0 C1.04478516 -0.01224609 2.08957031 -0.02449219 3.16601562 -0.03710938 C4.66745117 -0.04000977 4.66745117 -0.04000977 6.19921875 -0.04296875 C7.10889404 -0.04707764 8.01856934 -0.05118652 8.95581055 -0.05541992 C11.3125 0.1875 11.3125 0.1875 14.3125 2.1875 C14.3125 2.8475 14.3125 3.5075 14.3125 4.1875 C13.3225 3.8575 12.3325 3.5275 11.3125 3.1875 C1.20706421 0.68811286 -10.06210025 1.30031933 -19.6875 5.1875 C-19.6875 4.5275 -19.6875 3.8675 -19.6875 3.1875 C-19.0275 3.1875 -18.3675 3.1875 -17.6875 3.1875 C-17.6875 2.5275 -17.6875 1.8675 -17.6875 1.1875 C-11.81179788 -0.07663557 -5.97938808 0.00373012 0 0 Z " fill="#F1C9FB" transform="translate(147.6875,83.8125)"/>
<path d="M0 0 C0.33 0.66 0.66 1.32 1 2 C0.67 2.66 0.34 3.32 0 4 C-0.66 4 -1.32 4 -2 4 C-2 4.66 -2 5.32 -2 6 C-3.65 6.33 -5.3 6.66 -7 7 C-7.33 7.99 -7.66 8.98 -8 10 C-9.92578125 11.75390625 -9.92578125 11.75390625 -12.3125 13.5625 C-13.09238281 14.16191406 -13.87226562 14.76132812 -14.67578125 15.37890625 C-16.73331348 16.81399176 -18.72588364 17.95401055 -21 19 C-15.04379365 11.43400816 -7.70303713 5.71398999 0 0 Z " fill="#BD57CD" transform="translate(79,26)"/>
<path d="M0 0 C3.79627141 3.54984677 6.67918071 7.22980631 9.375 11.6875 C9.74238281 12.26822266 10.10976562 12.84894531 10.48828125 13.44726562 C11.39379019 14.92512456 12.20561132 16.45955847 13 18 C12.67 18.66 12.34 19.32 12 20 C11.67 19.01 11.34 18.02 11 17 C10.01 16.67 9.02 16.34 8 16 C6.96986723 14.35178756 5.96885372 12.68496298 5 11 C4.34 10.67 3.68 10.34 3 10 C2.1484375 7.71484375 2.1484375 7.71484375 1.375 4.9375 C1.11460937 4.01839844 0.85421875 3.09929688 0.5859375 2.15234375 C0.39257812 1.44207031 0.19921875 0.73179688 0 0 Z " fill="#8742DF" transform="translate(241,49)"/>
<path d="M0 0 C4.56088484 0.53657469 7.32695872 2.30143906 11 5 C11.84884766 5.59361328 11.84884766 5.59361328 12.71484375 6.19921875 C14.375 7.4375 14.375 7.4375 17 10 C17.375 12.8125 17.375 12.8125 17 15 C16.34 14.67 15.68 14.34 15 14 C15 13.34 15 12.68 15 12 C14.34 12 13.68 12 13 12 C12.773125 11.21625 12.54625 10.4325 12.3125 9.625 C11.22916667 6.80208333 11.22916667 6.80208333 8.5 5.75 C7.675 5.5025 6.85 5.255 6 5 C5.34 4.67 4.68 4.34 4 4 C4 3.34 4 2.68 4 2 C2.68 1.34 1.36 0.68 0 0 Z " fill="#9D3DD8" transform="translate(160,88)"/>
<path d="M0 0 C-0.33 0.99 -0.66 1.98 -1 3 C-1.66 3 -2.32 3 -3 3 C-3.268125 3.639375 -3.53625 4.27875 -3.8125 4.9375 C-5 7 -5 7 -8 8 C-8 8.66 -8 9.32 -8 10 C-10.31 10.33 -12.62 10.66 -15 11 C-15 10.34 -15 9.68 -15 9 C-14.34 9 -13.68 9 -13 9 C-13 8.34 -13 7.68 -13 7 C-10.6640625 5.2734375 -10.6640625 5.2734375 -7.625 3.375 C-6.62726563 2.74335938 -5.62953125 2.11171875 -4.6015625 1.4609375 C-2 0 -2 0 0 0 Z " fill="#BD33E2" transform="translate(92,21)"/>
<path d="M0 0 C6.94170563 0.33055741 12.79081025 0.75428718 19 4 C19 4.66 19 5.32 19 6 C6.28735632 3.83908046 6.28735632 3.83908046 1 2 C0.67 1.34 0.34 0.68 0 0 Z " fill="#8E33E1" transform="translate(172,9)"/>
<path d="M0 0 C0.98291016 0.00966797 1.96582031 0.01933594 2.97851562 0.02929688 C4.00267578 0.05443359 5.02683594 0.07957031 6.08203125 0.10546875 C7.11779297 0.11900391 8.15355469 0.13253906 9.22070312 0.14648438 C11.77916824 0.18185486 14.33658905 0.23121331 16.89453125 0.29296875 C16.89453125 0.62296875 16.89453125 0.95296875 16.89453125 1.29296875 C15.76273438 1.35355469 14.6309375 1.41414063 13.46484375 1.4765625 C11.9830598 1.56096792 10.50128965 1.64561592 9.01953125 1.73046875 C7.89998047 1.78944336 7.89998047 1.78944336 6.7578125 1.84960938 C2.69466261 2.00870499 2.69466261 2.00870499 -1.10546875 3.29296875 C-3.43845535 3.33319266 -5.77253541 3.33617122 -8.10546875 3.29296875 C-5.60795648 0.15933179 -3.93251113 -0.06819383 0 0 Z " fill="#A339D8" transform="translate(139.10546875,38.70703125)"/>
<path d="M0 0 C4.17576168 0.68416434 7.88080407 2.01365009 11.8125 3.5625 C13.55466797 4.24505859 13.55466797 4.24505859 15.33203125 4.94140625 C16.21246094 5.29074219 17.09289062 5.64007813 18 6 C13.00705132 7.69898948 8.71469969 5.94226831 4 4 C1.375 1.8125 1.375 1.8125 0 0 Z " fill="#9741D6" transform="translate(244,271)"/>
<path d="M0 0 C1.1157177 3.34715311 1.1807689 4.71071522 0 8 C-2.3125 9.1875 -2.3125 9.1875 -5 10 C-6.34050052 10.65213539 -7.67661368 11.31379969 -9 12 C-6.53974941 7.48954059 -3.39717963 3.81495577 0 0 Z " fill="#9D45D7" transform="translate(216,176)"/>
<path d="M0 0 C3.68014125 0.70771947 6.76166418 2.12896153 10 4 C10.33 4.99 10.66 5.98 11 7 C8.36 6.67 5.72 6.34 3 6 C3 5.01 3 4.02 3 3 C2.01 2.67 1.02 2.34 0 2 C0 1.34 0 0.68 0 0 Z " fill="#8626F7" transform="translate(209,25)"/>
<path d="M0 0 C0.66 0 1.32 0 2 0 C2 1.32 2 2.64 2 4 C2.928125 4.2784375 2.928125 4.2784375 3.875 4.5625 C7.05602866 6.71437233 7.19451947 9.37533763 8 13 C6.85373678 12.02133662 5.70800212 11.04205413 4.5625 10.0625 C3.92441406 9.51722656 3.28632813 8.97195312 2.62890625 8.41015625 C1.73008851 7.63204305 0.84063472 6.84063472 0 6 C-0.04080783 4.00041636 -0.04254356 1.99954746 0 0 Z " fill="#8A30E6" transform="translate(214,67)"/>
<path d="M0 0 C0.71285156 0.33773438 1.42570313 0.67546875 2.16015625 1.0234375 C7.38656437 3.45726954 12.39584643 5.6300958 18 7 C18 7.33 18 7.66 18 8 C11.13542244 8.70405924 5.5770434 5.71802894 0 2 C0 1.34 0 0.68 0 0 Z " fill="#F4D3FD" transform="translate(240,270)"/>
<path d="M0 0 C0.33 0 0.66 0 1 0 C1 4.95 1 9.9 1 15 C0.67 13.68 0.34 12.36 0 11 C-0.99 11.33 -1.98 11.66 -3 12 C-3.33 10.35 -3.66 8.7 -4 7 C-2.68 7.33 -1.36 7.66 0 8 C0 5.36 0 2.72 0 0 Z " fill="#E33BD4" transform="translate(60,193)"/>
<path d="M0 0 C0.66 0.33 1.32 0.66 2 1 C0.55049545 4.7910119 -1.15172566 8.3874638 -3 12 C-4.125 10.25 -4.125 10.25 -5 8 C-3.94423208 4.92867513 -1.99508001 2.53919275 0 0 Z " fill="#D645CF" transform="translate(38,78)"/>
<path d="M0 0 C0 3 0 3 -1.25 4.625 C-3.17415516 6.1368362 -4.60989418 6.58791279 -7 7 C-7 7.66 -7 8.32 -7 9 C-8.32 8.67 -9.64 8.34 -11 8 C-7.37 5.36 -3.74 2.72 0 0 Z " fill="#A547D4" transform="translate(206,188)"/>
<path d="M0 0 C0.66 0 1.32 0 2 0 C0.45941767 5.01508715 -1.02931839 9.6147081 -4 14 C-4.75 12.375 -4.75 12.375 -5 10 C-3.7260411 7.96166576 -2.38938077 5.96147874 -1 4 C-0.23060319 1.77397385 -0.23060319 1.77397385 0 0 Z " fill="#F9E0FE" transform="translate(225,156)"/>
<path d="M0 0 C-5.94 3.465 -5.94 3.465 -12 7 C-12 6.01 -12 5.02 -12 4 C-11.01 4 -10.02 4 -9 4 C-9 3.34 -9 2.68 -9 2 C-8.34 2 -7.68 2 -7 2 C-7 1.34 -7 0.68 -7 0 C-4 -1 -4 -1 0 0 Z " fill="#FADBFC" transform="translate(89,21)"/>
<path d="M0 0 C3.375 0.25 3.375 0.25 7 1 C8.25 3 8.25 3 9 5 C9.99 5.33 10.98 5.66 12 6 C11.67 6.66 11.34 7.32 11 8 C9.16399255 6.85845641 7.33125195 5.71165684 5.5 4.5625 C4.4790625 3.92441406 3.458125 3.28632812 2.40625 2.62890625 C1.6121875 2.09136719 0.818125 1.55382813 0 1 C0 0.67 0 0.34 0 0 Z " fill="#9644D7" transform="translate(188,50)"/>
<path d="M0 0 C2.12966005 2.12966005 2.47624662 3.04068204 3.1875 5.875 C3.36667969 6.55304688 3.54585937 7.23109375 3.73046875 7.9296875 C4.02970718 10.22818556 3.69377386 11.80550964 3 14 C3 13.34 3 12.68 3 12 C2.34 12 1.68 12 1 12 C0.67 8.04 0.34 4.08 0 0 Z " fill="#E7C5FA" transform="translate(228,98)"/>
<path d="M0 0 C0 0.33 0 0.66 0 1 C-1.91666667 1.47916667 -3.83333333 1.95833333 -5.75 2.4375 C-6.81734375 2.70433594 -7.8846875 2.97117187 -8.984375 3.24609375 C-10.78645833 3.69661458 -12.58854167 4.14713542 -14.390625 4.59765625 C-14.92171875 4.73042969 -15.4528125 4.86320312 -16 5 C-16 4.34 -16 3.68 -16 3 C-15.34 3 -14.68 3 -14 3 C-14 2.34 -14 1.68 -14 1 C-9.23692563 0.04738513 -4.8333472 -0.08333357 0 0 Z " fill="#FADCFE" transform="translate(144,84)"/>
<path d="M0 0 C2.10827055 3.16240582 2.33817465 4.50657469 2.625 8.1875 C2.69976562 9.08855469 2.77453125 9.98960937 2.8515625 10.91796875 C2.90054688 11.60503906 2.94953125 12.29210937 3 13 C2.01 12.34 1.02 11.68 0 11 C-0.29296875 8.3984375 -0.29296875 8.3984375 -0.1875 5.375 C-0.16042969 4.37210938 -0.13335937 3.36921875 -0.10546875 2.3359375 C-0.07066406 1.56507812 -0.03585938 0.79421875 0 0 Z " fill="#C332D9" transform="translate(109,126)"/>
<path d="M0 0 C0.93423645 3.01031744 1.04449911 3.86650268 0 7 C-0.99 6.34 -1.98 5.68 -3 5 C-3 4.34 -3 3.68 -3 3 C-3.66 3 -4.32 3 -5 3 C-5 2.34 -5 1.68 -5 1 C-3.35 0.67 -1.7 0.34 0 0 Z " fill="#BF34E0" transform="translate(127,152)"/>
<path d="M0 0 C2 3 2 3 2 6 C2.639375 6.2475 3.27875 6.495 3.9375 6.75 C6 8 6 8 6.75 10.125 C6.8325 10.74375 6.915 11.3625 7 12 C3.73539027 10.19587357 2.11070205 9.16605307 0 6 C-0.125 2.8125 -0.125 2.8125 0 0 Z " fill="#B740D2" transform="translate(111,139)"/>
<path d="M0 0 C0.66 0.33 1.32 0.66 2 1 C1.7834375 1.7734375 1.7834375 1.7734375 1.5625 2.5625 C0.90632383 5.1771224 0.90632383 5.1771224 0.625 8.625 C0.41875 9.73875 0.2125 10.8525 0 12 C-0.99 12.66 -1.98 13.32 -3 14 C-2.01 9.38 -1.02 4.76 0 0 Z " fill="#DA3DD2" transform="translate(32,92)"/>
<path d="M0 0 C1.32 0.33 2.64 0.66 4 1 C2.02 3.31 0.04 5.62 -2 8 C-2.33 7.01 -2.66 6.02 -3 5 C-2.34 5 -1.68 5 -1 5 C-0.67 3.35 -0.34 1.7 0 0 Z " fill="#FBE4FE" transform="translate(212,176)"/>
<path d="M0 0 C1 4 1 4 0 7 C-1.29355827 8.37195574 -2.62298702 9.71182656 -4 11 C-4.66 10.67 -5.32 10.34 -6 10 C-4.02 6.7 -2.04 3.4 0 0 Z " fill="#994BD9" transform="translate(223,165)"/>
<path d="M0 0 C0.45375 0.495 0.9075 0.99 1.375 1.5 C2.87635519 3.22609337 2.87635519 3.22609337 5 3 C5.33 4.65 5.66 6.3 6 8 C4.125 7.75 4.125 7.75 2 7 C0.27898465 4.41847698 0 3.15081975 0 0 Z " fill="#D942C8" transform="translate(55,201)"/>
<path d="M0 0 C4.51478398 0.53115106 7.34666857 2.36620292 11 5 C8 6 8 6 5.8125 5.0625 C5.214375 4.711875 4.61625 4.36125 4 4 C4 3.34 4 2.68 4 2 C2.68 1.34 1.36 0.68 0 0 Z " fill="#A74ED2" transform="translate(160,88)"/>
<path d="M0 0 C0.66 0.33 1.32 0.66 2 1 C-0.64 2.98 -3.28 4.96 -6 7 C-6 5.68 -6 4.36 -6 3 C-4.03533587 1.93224776 -2.03144641 0.93446535 0 0 Z " fill="#FADCFB" transform="translate(67,34)"/>
<path d="M0 0 C0.33 0.66 0.66 1.32 1 2 C-0.25 5.5625 -0.25 5.5625 -2 9 C-2.99 9.33 -3.98 9.66 -5 10 C-3.84414715 6.08788267 -2.64465038 3.1254959 0 0 Z " fill="#FCD9FD" transform="translate(77,78)"/>
<path d="M0 0 C0.99 0.33 1.98 0.66 3 1 C-1.625 5.875 -1.625 5.875 -5 7 C-3.70700306 4.11562221 -2.34058637 2.12780579 0 0 Z " fill="#C733DF" transform="translate(72,33)"/>
<path d="M0 0 C3.36591866 1.44253657 5.51047079 3.33264727 8 6 C7.01 6.495 7.01 6.495 6 7 C6 6.34 6 5.68 6 5 C4.35 4.67 2.7 4.34 1 4 C0.67 2.68 0.34 1.36 0 0 Z " fill="#8942DC" transform="translate(219,29)"/>
<path d="M0 0 C2.95929119 2.75520215 5.03681826 5.46627288 7 9 C5.68 8.34 4.36 7.68 3 7 C3 6.34 3 5.68 3 5 C2.01 4.67 1.02 4.34 0 4 C0 2.68 0 1.36 0 0 Z " fill="#FDD4FA" transform="translate(45,193)"/>
<path d="M0 0 C-5.14285714 4.42857143 -5.14285714 4.42857143 -9 5 C-9 4.34 -9 3.68 -9 3 C-6.04341306 0.15291628 -4.05047276 -0.3375394 0 0 Z " fill="#AD40CF" transform="translate(110,49)"/>
<path d="M0 0 C4.8 3.44615385 4.8 3.44615385 5.8125 6.25 C5.874375 6.8275 5.93625 7.405 6 8 C2.57701423 6.85900474 1.85241234 5.99914379 0 3 C0 2.01 0 1.02 0 0 Z " fill="#7E34DC" transform="translate(236,44)"/>
<path d="M0 0 C0.66 0.33 1.32 0.66 2 1 C2 1.99 2 2.98 2 4 C0.02 4.99 -1.96 5.98 -4 7 C-2.92598892 4.08482708 -2.22189824 2.22189824 0 0 Z " fill="#BC31E2" transform="translate(117,100)"/>
<path d="M0 0 C2.31 1.98 4.62 3.96 7 6 C6.67 6.66 6.34 7.32 6 8 C4 6.625 4 6.625 2 5 C2 4.34 2 3.68 2 3 C1.34 3 0.68 3 0 3 C0 2.01 0 1.02 0 0 Z " fill="#F5D8FE" transform="translate(207,65)"/>
<path d="M0 0 C-2.26185454 2.26185454 -3.96983561 3.03921617 -7 4 C-7.99 3.67 -8.98 3.34 -10 3 C-6.68152292 -0.06320961 -4.44849969 -0.3033068 0 0 Z " fill="#AD50D2" transform="translate(120,45)"/>
</svg>
